<svg xmlns="http://www.w3.org/2000/svg" xmlns:xlink="http://www.w3.org/1999/xlink" version="1.1" xml:space="preserve" viewBox="-0.65 -0.17 566.46 161.22">
<desc>Created with Fabric.js 3.5.0</desc>
<defs>
</defs>
<rect x="0" y="0" width="100%" height="100%" fill="#ffffff"/>
<g transform="matrix(1 0 0 1 369.6314 80.5974)" id="965543">
<path style="stroke: rgb(43,52,69); stroke-width: 2.2677; stroke-dasharray: none; stroke-linecap: round; stroke-dashoffset: 0; stroke-linejoin: miter; stroke-miterlimit: 4; is-custom-font: none; font-file-url: none; fill: rgb(43,52,69); fill-rule: evenodd; opacity: 1;" vector-effect="non-scaling-stroke" transform=" translate(-195.0501, -36.4)" d="M 7.1 71.8 L 2.3 71.8 A 2.98 2.98 0 0 1 1.607 71.724 A 1.951 1.951 0 0 1 0.6 71.15 A 2.24 2.24 0 0 1 0.022 69.867 A 3.03 3.03 0 0 1 0 69.5 L 0 4.2 Q 0 3.133 0.565 2.49 A 2.089 2.089 0 0 1 0.6 2.45 A 1.95 1.95 0 0 1 1.603 1.877 Q 1.921 1.801 2.297 1.8 A 2.725 2.725 0 0 1 2.3 1.8 L 6.9 1.8 A 4.189 4.189 0 0 1 7.56 1.849 Q 8.278 1.964 8.7 2.35 Q 9.278 2.881 9.392 3.178 A 0.541 0.541 0 0 1 9.4 3.2 L 42.6 54.2 L 42.6 4.2 Q 42.6 3.133 43.165 2.49 A 2.089 2.089 0 0 1 43.2 2.45 A 1.95 1.95 0 0 1 44.203 1.877 Q 44.521 1.801 44.897 1.8 A 2.725 2.725 0 0 1 44.9 1.8 L 49.7 1.8 A 3.009 3.009 0 0 1 50.455 1.89 A 2.135 2.135 0 0 1 51.45 2.45 A 2.17 2.17 0 0 1 52.046 3.602 A 3.144 3.144 0 0 1 52.1 4.2 L 52.1 69.4 Q 52.1 70.4 51.45 71.1 A 2.138 2.138 0 0 1 49.893 71.799 A 2.789 2.789 0 0 1 49.8 71.8 L 45 71.8 A 3.204 3.204 0 0 1 44.366 71.742 Q 43.997 71.667 43.715 71.498 A 1.632 1.632 0 0 1 43.35 71.2 Q 42.899 70.708 42.683 70.485 A 7.179 7.179 0 0 0 42.6 70.4 L 9.5 19.9 L 9.5 69.5 A 2.517 2.517 0 0 1 9.371 70.322 A 2.143 2.143 0 0 1 8.85 71.15 A 2.17 2.17 0 0 1 7.698 71.746 A 3.144 3.144 0 0 1 7.1 71.8 Z M 67.7 50.3 L 67.7 22.1 A 2.517 2.517 0 0 1 67.829 21.279 A 2.143 2.143 0 0 1 68.35 20.45 A 2.195 2.195 0 0 1 69.816 19.806 A 2.933 2.933 0 0 1 70 19.8 L 75 19.8 A 2.517 2.517 0 0 1 75.821 19.929 A 2.143 2.143 0 0 1 76.65 20.45 A 2.195 2.195 0 0 1 77.294 21.916 A 2.933 2.933 0 0 1 77.3 22.1 L 77.3 49.8 A 24.848 24.848 0 0 0 77.879 55.423 Q 79.667 63.093 86.988 64.422 A 18.555 18.555 0 0 0 90.3 64.7 A 15.78 15.78 0 0 0 94.77 64.098 A 12.161 12.161 0 0 0 100.25 60.75 A 13.053 13.053 0 0 0 103.381 54.985 Q 103.92 52.946 103.99 50.525 A 25.257 25.257 0 0 0 104 49.8 L 104 22.1 A 2.517 2.517 0 0 1 104.129 21.279 A 2.143 2.143 0 0 1 104.65 20.45 A 2.195 2.195 0 0 1 106.116 19.806 A 2.933 2.933 0 0 1 106.3 19.8 L 111.3 19.8 A 2.49 2.49 0 0 1 112.02 19.9 A 1.936 1.936 0 0 1 112.9 20.45 A 2.24 2.24 0 0 1 113.479 21.734 A 3.03 3.03 0 0 1 113.5 22.1 L 113.5 69.5 A 2.735 2.735 0 0 1 113.393 70.282 A 2.178 2.178 0 0 1 112.9 71.15 Q 112.3 71.8 111.3 71.8 L 106.6 71.8 A 2.517 2.517 0 0 1 105.779 71.671 A 2.143 2.143 0 0 1 104.95 71.15 A 2.195 2.195 0 0 1 104.306 69.685 A 2.933 2.933 0 0 1 104.3 69.5 L 104.3 65.1 Q 101.6 68.6 97.75 70.7 A 15.447 15.447 0 0 1 94.066 72.098 Q 92.301 72.537 90.217 72.702 A 33.287 33.287 0 0 1 87.6 72.8 A 23.955 23.955 0 0 1 82.547 72.293 A 17.473 17.473 0 0 1 76.75 69.95 A 17.881 17.881 0 0 1 70.146 62.317 A 21.49 21.49 0 0 1 70 62 A 25.675 25.675 0 0 1 68.024 55.039 A 33.501 33.501 0 0 1 67.7 50.3 Z M 349.3 71.8 L 344.2 71.8 A 2.029 2.029 0 0 1 342.936 71.357 A 2.694 2.694 0 0 1 342.75 71.2 Q 342.1 70.6 342.1 69.7 Q 342.1 69.4 342.25 68.95 A 3.054 3.054 0 0 1 342.394 68.6 Q 342.547 68.28 342.8 67.9 L 360.2 45.2 L 343.9 23.7 A 8.723 8.723 0 0 1 343.675 23.345 Q 343.477 23.014 343.373 22.759 A 2.388 2.388 0 0 1 343.35 22.7 A 2.305 2.305 0 0 1 343.205 22.05 A 2.138 2.138 0 0 1 343.2 21.9 A 2.218 2.218 0 0 1 343.336 21.111 A 1.993 1.993 0 0 1 343.8 20.4 A 2.024 2.024 0 0 1 345.242 19.801 A 2.657 2.657 0 0 1 345.3 19.8 L 350.4 19.8 A 3.532 3.532 0 0 1 351.068 19.86 Q 351.451 19.933 351.751 20.1 A 1.825 1.825 0 0 1 352.1 20.35 Q 352.7 20.9 353 21.4 L 366.3 38.7 L 379.6 21.5 A 18.008 18.008 0 0 1 380.008 21.01 Q 380.227 20.755 380.478 20.48 A 30.213 30.213 0 0 1 380.55 20.4 A 1.737 1.737 0 0 1 381.336 19.917 Q 381.62 19.83 381.964 19.808 A 3.714 3.714 0 0 1 382.2 19.8 L 387.1 19.8 A 2.218 2.218 0 0 1 387.89 19.937 A 1.993 1.993 0 0 1 388.6 20.4 A 2.024 2.024 0 0 1 389.199 21.843 A 2.657 2.657 0 0 1 389.2 21.9 A 2.245 2.245 0 0 1 389.073 22.638 A 2.563 2.563 0 0 1 389.05 22.7 A 2.978 2.978 0 0 1 388.932 22.97 Q 388.775 23.288 388.5 23.7 L 372 45.4 L 389.4 67.9 A 8.723 8.723 0 0 1 389.626 68.256 Q 389.824 68.586 389.927 68.841 A 2.388 2.388 0 0 1 389.95 68.9 A 2.305 2.305 0 0 1 390.095 69.55 A 2.138 2.138 0 0 1 390.1 69.7 A 2.218 2.218 0 0 1 389.964 70.49 A 1.993 1.993 0 0 1 389.5 71.2 A 2.024 2.024 0 0 1 388.058 71.8 A 2.657 2.657 0 0 1 388 71.8 L 382.7 71.8 A 3.248 3.248 0 0 1 382.033 71.736 Q 381.484 71.621 381.1 71.3 Q 380.5 70.8 380.1 70.3 L 366.1 52 L 351.9 70.3 L 350.95 71.25 Q 350.495 71.706 349.662 71.784 A 3.869 3.869 0 0 1 349.3 71.8 Z M 239 65.3 L 239 69.5 A 2.517 2.517 0 0 1 238.871 70.322 A 2.143 2.143 0 0 1 238.35 71.15 A 2.195 2.195 0 0 1 236.885 71.795 A 2.933 2.933 0 0 1 236.7 71.8 L 232.1 71.8 A 2.517 2.517 0 0 1 231.279 71.671 A 2.143 2.143 0 0 1 230.45 71.15 A 2.195 2.195 0 0 1 229.806 69.685 A 2.933 2.933 0 0 1 229.8 69.5 L 229.8 3.1 A 2.517 2.517 0 0 1 229.929 2.279 A 2.143 2.143 0 0 1 230.45 1.45 A 2.195 2.195 0 0 1 231.916 0.806 A 2.933 2.933 0 0 1 232.1 0.8 L 237 0.8 A 2.49 2.49 0 0 1 237.72 0.9 A 1.936 1.936 0 0 1 238.6 1.45 A 2.24 2.24 0 0 1 239.179 2.734 A 3.03 3.03 0 0 1 239.2 3.1 L 239.2 26.1 A 19.558 19.558 0 0 1 243.654 22.087 A 23.885 23.885 0 0 1 245.65 20.9 Q 249.6 18.8 255.4 18.8 Q 261 18.8 264.95 20.75 Q 268.9 22.7 271.45 26.1 A 24.481 24.481 0 0 1 275.218 33.533 A 27.557 27.557 0 0 1 275.3 33.8 Q 276.6 38.1 276.8 42.8 A 52.06 52.06 0 0 1 276.886 44.722 A 42.441 42.441 0 0 1 276.9 45.8 A 44.702 44.702 0 0 1 276.861 47.628 A 54.711 54.711 0 0 1 276.8 48.8 A 37.156 37.156 0 0 1 275.679 56.544 A 34.008 34.008 0 0 1 275.3 57.9 Q 274 62.2 271.45 65.55 Q 268.9 68.9 264.95 70.85 A 17.993 17.993 0 0 1 260.438 72.343 Q 258.113 72.8 255.4 72.8 A 27.821 27.821 0 0 1 251.181 72.498 Q 248.836 72.138 246.889 71.348 A 15.243 15.243 0 0 1 245.4 70.65 A 21.067 21.067 0 0 1 241.455 67.942 A 17.424 17.424 0 0 1 239 65.3 Z M 155.6 71.8 L 148.7 71.8 A 23.869 23.869 0 0 1 144.946 71.523 Q 141.842 71.028 139.6 69.65 Q 136.1 67.5 134.5 63.55 Q 133 59.847 132.906 54.87 A 35.544 35.544 0 0 1 132.9 54.2 L 132.9 27.8 L 125.1 27.8 A 2.517 2.517 0 0 1 124.279 27.671 A 2.143 2.143 0 0 1 123.45 27.15 A 2.195 2.195 0 0 1 122.806 25.685 A 2.933 2.933 0 0 1 122.8 25.5 L 122.8 22.1 A 2.517 2.517 0 0 1 122.929 21.279 A 2.143 2.143 0 0 1 123.45 20.45 A 2.195 2.195 0 0 1 124.916 19.806 A 2.933 2.933 0 0 1 125.1 19.8 L 132.9 19.8 L 132.9 3.1 A 2.517 2.517 0 0 1 133.029 2.279 A 2.143 2.143 0 0 1 133.55 1.45 A 2.195 2.195 0 0 1 135.016 0.806 A 2.933 2.933 0 0 1 135.2 0.8 L 139.9 0.8 A 2.517 2.517 0 0 1 140.721 0.929 A 2.143 2.143 0 0 1 141.55 1.45 A 2.195 2.195 0 0 1 142.194 2.916 A 2.933 2.933 0 0 1 142.2 3.1 L 142.2 19.8 L 154.6 19.8 A 2.98 2.98 0 0 1 155.294 19.876 A 1.951 1.951 0 0 1 156.3 20.45 A 2.24 2.24 0 0 1 156.879 21.734 A 3.03 3.03 0 0 1 156.9 22.1 L 156.9 25.5 A 2.735 2.735 0 0 1 156.793 26.282 A 2.178 2.178 0 0 1 156.3 27.15 A 1.95 1.95 0 0 1 155.297 27.724 Q 154.979 27.8 154.603 27.8 A 2.725 2.725 0 0 1 154.6 27.8 L 142.2 27.8 L 142.2 53.5 A 22.567 22.567 0 0 0 142.356 56.243 Q 142.528 57.643 142.889 58.808 A 9.754 9.754 0 0 0 143.8 60.9 Q 145.4 63.6 149.5 63.6 L 155.6 63.6 A 2.517 2.517 0 0 1 156.421 63.729 A 2.143 2.143 0 0 1 157.25 64.25 A 2.195 2.195 0 0 1 157.894 65.716 A 2.933 2.933 0 0 1 157.9 65.9 L 157.9 69.5 A 2.517 2.517 0 0 1 157.771 70.322 A 2.143 2.143 0 0 1 157.25 71.15 A 2.195 2.195 0 0 1 155.785 71.795 A 2.933 2.933 0 0 1 155.6 71.8 Z M 304.944 72.358 A 32.978 32.978 0 0 0 310.5 72.8 A 38.04 38.04 0 0 0 311.903 72.775 Q 318.578 72.528 323.2 69.9 Q 328.3 67 331 61.85 A 25.148 25.148 0 0 0 332.954 56.885 A 30.47 30.47 0 0 0 334 50.1 Q 334.075 48.825 334.094 47.016 A 122.336 122.336 0 0 0 334.1 45.75 A 136.69 136.69 0 0 0 334.1 45.511 Q 334.096 43.027 334 41.5 A 32.172 32.172 0 0 0 333.539 37.276 A 25.183 25.183 0 0 0 330.95 29.7 Q 328.2 24.6 323.1 21.7 A 18.923 18.923 0 0 0 322.027 21.135 Q 317.23 18.8 310.5 18.8 A 37.717 37.717 0 0 0 309.628 18.81 Q 306.603 18.88 303.984 19.44 A 21.181 21.181 0 0 0 297.9 21.7 Q 292.8 24.6 290.05 29.7 Q 287.3 34.8 287 41.5 Q 286.9 43.1 286.9 45.75 A 132.619 132.619 0 0 0 286.901 46.299 Q 286.911 48.58 287 50.1 Q 287.3 56.7 290 61.85 Q 292.7 67 297.8 69.9 A 18.854 18.854 0 0 0 299.217 70.628 Q 301.799 71.82 304.944 72.358 Z M 174.7 71.8 L 169.8 71.8 A 2.517 2.517 0 0 1 168.979 71.671 A 2.143 2.143 0 0 1 168.15 71.15 A 2.195 2.195 0 0 1 167.506 69.685 A 2.933 2.933 0 0 1 167.5 69.5 L 167.5 22.2 Q 167.5 21.2 168.15 20.5 A 2.138 2.138 0 0 1 169.707 19.802 A 2.789 2.789 0 0 1 169.8 19.8 L 174.4 19.8 A 2.312 2.312 0 0 1 176.078 20.479 A 2.755 2.755 0 0 1 176.1 20.5 A 2.311 2.311 0 0 1 176.8 22.169 A 2.839 2.839 0 0 1 176.8 22.2 L 176.8 26.6 Q 178.8 23.2 182.3 21.5 Q 185.8 19.8 190.8 19.8 L 194.7 19.8 A 2.517 2.517 0 0 1 195.521 19.929 A 2.143 2.143 0 0 1 196.35 20.45 A 2.195 2.195 0 0 1 196.994 21.916 A 2.933 2.933 0 0 1 197 22.1 L 197 26.2 A 2.49 2.49 0 0 1 196.901 26.921 A 1.936 1.936 0 0 1 196.35 27.8 A 2.24 2.24 0 0 1 195.066 28.379 A 3.03 3.03 0 0 1 194.7 28.4 L 188.7 28.4 A 14.908 14.908 0 0 0 185.125 28.805 A 10.171 10.171 0 0 0 180.2 31.55 A 10.492 10.492 0 0 0 177.434 36.799 A 15.476 15.476 0 0 0 177.1 40.1 L 177.1 69.5 A 2.336 2.336 0 0 1 176.946 70.361 A 2.134 2.134 0 0 1 176.4 71.15 Q 175.7 71.8 174.7 71.8 Z M 212.6 71.8 L 207.8 71.8 A 2.517 2.517 0 0 1 206.979 71.671 A 2.143 2.143 0 0 1 206.15 71.15 A 2.195 2.195 0 0 1 205.506 69.685 A 2.933 2.933 0 0 1 205.5 69.5 L 205.5 22.1 A 2.517 2.517 0 0 1 205.629 21.279 A 2.143 2.143 0 0 1 206.15 20.45 A 2.195 2.195 0 0 1 207.616 19.806 A 2.933 2.933 0 0 1 207.8 19.8 L 212.6 19.8 A 2.517 2.517 0 0 1 213.421 19.929 A 2.143 2.143 0 0 1 214.25 20.45 A 2.195 2.195 0 0 1 214.894 21.916 A 2.933 2.933 0 0 1 214.9 22.1 L 214.9 69.5 A 2.517 2.517 0 0 1 214.771 70.322 A 2.143 2.143 0 0 1 214.25 71.15 A 2.195 2.195 0 0 1 212.785 71.795 A 2.933 2.933 0 0 1 212.6 71.8 Z M 310.5 65.1 Q 316.7 65.1 320.4 61.15 A 13.345 13.345 0 0 0 323.187 56.467 Q 324.245 53.519 324.4 49.6 A 38.263 38.263 0 0 0 324.457 48.475 Q 324.5 47.31 324.5 45.8 A 92.546 92.546 0 0 0 324.494 44.7 Q 324.476 43.23 324.41 42.152 A 30.725 30.725 0 0 0 324.4 42 A 26.211 26.211 0 0 0 323.859 37.506 Q 322.915 33.135 320.4 30.45 A 12.272 12.272 0 0 0 312.916 26.663 A 17.301 17.301 0 0 0 310.5 26.5 A 15.78 15.78 0 0 0 306.03 27.103 A 12.161 12.161 0 0 0 300.55 30.45 A 13.098 13.098 0 0 0 297.695 35.29 Q 297.015 37.269 296.753 39.678 A 28.381 28.381 0 0 0 296.6 42 A 38.263 38.263 0 0 0 296.543 43.126 Q 296.5 44.291 296.5 45.8 A 92.552 92.552 0 0 0 296.506 46.9 Q 296.524 48.371 296.59 49.449 A 30.725 30.725 0 0 0 296.6 49.6 A 25.387 25.387 0 0 0 297.092 54.095 Q 298.001 58.466 300.55 61.15 Q 304.3 65.1 310.5 65.1 Z M 253.3 64.7 Q 258.5 64.7 261.45 62.45 Q 264.4 60.2 265.7 56.55 A 26.551 26.551 0 0 0 267.105 50.064 A 30.554 30.554 0 0 0 267.2 48.7 Q 267.3 45.8 267.2 42.9 A 27.964 27.964 0 0 0 266.281 36.91 A 25.018 25.018 0 0 0 265.7 35.05 Q 264.4 31.4 261.45 29.15 A 10.063 10.063 0 0 0 258.19 27.535 Q 256.063 26.9 253.3 26.9 A 16.542 16.542 0 0 0 249.809 27.25 A 11.567 11.567 0 0 0 245.5 29.1 Q 242.4 31.3 240.85 34.7 A 18.073 18.073 0 0 0 239.301 40.183 A 16.851 16.851 0 0 0 239.2 41.6 A 45.477 45.477 0 0 0 239.139 42.892 Q 239.1 44.044 239.1 45.45 A 85.614 85.614 0 0 0 239.114 47.046 Q 239.129 47.83 239.159 48.515 A 42.014 42.014 0 0 0 239.2 49.3 Q 239.4 53 240.85 56.55 Q 242.3 60.1 245.35 62.4 A 10.912 10.912 0 0 0 249.359 64.258 Q 250.913 64.642 252.736 64.693 A 20.204 20.204 0 0 0 253.3 64.7 Z M 213.3 10.1 L 207 10.1 A 2.517 2.517 0 0 1 206.179 9.971 A 2.143 2.143 0 0 1 205.35 9.45 A 2.195 2.195 0 0 1 204.706 7.985 A 2.933 2.933 0 0 1 204.7 7.8 L 204.7 2.4 Q 204.7 1.4 205.35 0.7 A 2.138 2.138 0 0 1 206.907 0.002 A 2.789 2.789 0 0 1 207 0 L 213.3 0 A 2.312 2.312 0 0 1 214.978 0.679 A 2.755 2.755 0 0 1 215 0.7 A 2.311 2.311 0 0 1 215.7 2.369 A 2.839 2.839 0 0 1 215.7 2.4 L 215.7 7.8 A 2.336 2.336 0 0 1 215.546 8.661 A 2.134 2.134 0 0 1 215 9.45 Q 214.3 10.1 213.3 10.1 Z" stroke-linecap="round"/>
</g>
<g transform="matrix(3.5233 0 0 3.5233 73.7797 80.5965)" id="637269" clip-path="url(#CLIPPATH_5)">
<clipPath id="CLIPPATH_5">
	<path transform="matrix(1 0 0 1 -0.1306 -0.0444) translate(-100.0059, -186.1211)" id="5510" d="M 79.011719 163.242188 L 121 163.242188 L 121 209 L 79.011719 209 Z M 79.011719 163.242188" stroke-linecap="round"/>
</clipPath>
<path style="stroke: none; stroke-width: 1; stroke-dasharray: none; stroke-linecap: butt; stroke-dashoffset: 0; stroke-linejoin: miter; stroke-miterlimit: 4; is-custom-font: none; font-file-url: none; fill: rgb(59,183,126); fill-rule: nonzero; opacity: 1;" vector-effect="non-scaling-stroke" transform=" translate(-100.1364, -186.1655)" d="M 110.003906 172.605469 L 109.625 172.316406 L 109.230469 172.046875 C 109.164062 172 109.097656 171.953125 109.03125 171.914062 L 108.828125 171.789062 C 108.691406 171.707031 108.554688 171.621094 108.417969 171.539062 C 108.136719 171.390625 107.859375 171.226562 107.570312 171.09375 C 107.425781 171.027344 107.285156 170.953125 107.136719 170.890625 L 106.695312 170.707031 C 105.515625 170.214844 104.257812 169.90625 102.988281 169.757812 C 101.710938 169.605469 100.417969 169.65625 99.152344 169.859375 C 98.992188 169.878906 98.835938 169.914062 98.675781 169.945312 C 98.519531 169.980469 98.363281 170.007812 98.207031 170.046875 C 97.894531 170.128906 97.582031 170.199219 97.277344 170.300781 C 97.125 170.351562 96.96875 170.398438 96.816406 170.449219 C 96.710938 170.488281 96.597656 170.507812 96.484375 170.503906 C 89.328125 170.328125 83.335938 177.902344 85.804688 186.800781 C 85.84375 186.9375 86.03125 186.957031 86.09375 186.828125 C 87.128906 184.660156 89.746094 183.933594 92.449219 182.445312 C 95.3125 180.863281 98.277344 178.425781 99.550781 172.5 C 99.558594 172.476562 99.5625 172.453125 99.566406 172.429688 C 99.605469 172.179688 99.347656 171.984375 99.125 172.105469 C 98.886719 172.230469 98.65625 172.363281 98.421875 172.496094 C 97.839844 172.828125 97.261719 173.183594 96.695312 173.554688 C 96.414062 173.738281 96.132812 173.925781 95.851562 174.117188 C 95.574219 174.308594 95.296875 174.503906 95.023438 174.703125 C 94.472656 175.097656 93.933594 175.511719 93.402344 175.933594 C 92.871094 176.359375 92.355469 176.796875 91.851562 177.253906 C 91.351562 177.710938 90.863281 178.1875 90.40625 178.6875 C 90.175781 178.941406 89.953125 179.199219 89.742188 179.464844 C 89.625 179.613281 89.511719 179.765625 89.402344 179.921875 C 89.390625 179.941406 89.363281 179.921875 89.375 179.902344 C 89.472656 179.738281 89.574219 179.578125 89.679688 179.417969 C 89.871094 179.132812 90.074219 178.855469 90.285156 178.585938 C 90.707031 178.046875 91.160156 177.53125 91.632812 177.03125 C 92.101562 176.53125 92.589844 176.046875 93.09375 175.578125 C 93.59375 175.105469 94.105469 174.648438 94.632812 174.207031 C 94.894531 173.984375 95.160156 173.765625 95.429688 173.546875 C 95.695312 173.332031 95.964844 173.121094 96.242188 172.910156 C 96.613281 172.625 96.988281 172.347656 97.371094 172.074219 L 97.410156 172.058594 C 97.542969 172.007812 97.675781 171.964844 97.808594 171.917969 C 98.074219 171.816406 98.351562 171.75 98.621094 171.667969 C 98.757812 171.628906 98.898438 171.601562 99.035156 171.566406 C 99.171875 171.535156 99.308594 171.496094 99.449219 171.476562 C 100.5625 171.265625 101.707031 171.183594 102.847656 171.285156 C 103.980469 171.382812 105.109375 171.625 106.1875 172.03125 L 106.589844 172.1875 C 106.722656 172.238281 106.851562 172.300781 106.984375 172.359375 C 107.25 172.46875 107.5 172.609375 107.757812 172.738281 C 107.886719 172.804688 108.007812 172.878906 108.136719 172.949219 L 108.324219 173.058594 C 108.386719 173.09375 108.445312 173.132812 108.503906 173.171875 L 108.871094 173.40625 L 109.222656 173.65625 C 111.089844 175.007812 112.585938 176.894531 113.484375 179.042969 C 114.386719 181.191406 114.691406 183.59375 114.339844 185.90625 L 114.265625 186.339844 L 114.175781 186.769531 L 114.128906 186.984375 L 114.074219 187.195312 L 113.957031 187.621094 L 113.824219 188.039062 C 113.800781 188.109375 113.777344 188.179688 113.753906 188.25 L 113.675781 188.453125 L 113.519531 188.867188 L 113.339844 189.269531 L 113.25 189.46875 L 113.152344 189.667969 L 112.953125 190.0625 L 112.738281 190.445312 C 112.699219 190.507812 112.664062 190.574219 112.625 190.632812 L 112.507812 190.820312 C 112.203125 191.324219 111.84375 191.792969 111.46875 192.246094 C 110.671875 193.203125 109.726562 194.035156 108.675781 194.714844 C 108.90625 194.785156 109.132812 194.855469 109.359375 194.925781 C 110.320312 194.296875 111.199219 193.542969 111.96875 192.679688 C 112.375 192.214844 112.765625 191.730469 113.105469 191.210938 L 113.234375 191.019531 C 113.28125 190.953125 113.316406 190.886719 113.359375 190.820312 L 113.601562 190.421875 L 113.824219 190.015625 L 113.933594 189.808594 L 114.035156 189.597656 L 114.234375 189.179688 L 114.414062 188.746094 L 114.503906 188.53125 C 114.53125 188.460938 114.558594 188.386719 114.585938 188.3125 L 114.742188 187.871094 L 114.878906 187.425781 L 114.945312 187.199219 L 115 186.972656 L 115.113281 186.515625 L 115.203125 186.058594 C 115.652344 183.597656 115.410156 181 114.5 178.640625 C 113.59375 176.277344 112.027344 174.160156 110.003906 172.605469 Z M 120.902344 198.035156 C 113.984375 210.292969 99.359375 211.988281 91.828125 204.078125 C 91.710938 203.953125 91.570312 203.851562 91.414062 203.777344 C 91.191406 203.671875 90.976562 203.554688 90.757812 203.441406 C 90.679688 203.402344 90.605469 203.363281 90.527344 203.324219 C 90.171875 203.132812 89.828125 202.917969 89.480469 202.714844 C 89.269531 202.589844 89.070312 202.449219 88.863281 202.316406 C 88.660156 202.175781 88.453125 202.050781 88.257812 201.898438 C 88.171875 201.835938 88.089844 201.773438 88.003906 201.710938 C 86.519531 200.601562 85.160156 199.320312 84.015625 197.867188 C 82.800781 196.335938 81.78125 194.644531 81.035156 192.84375 L 80.757812 192.167969 C 80.671875 191.941406 80.59375 191.710938 80.511719 191.480469 C 80.34375 191.023438 80.21875 190.550781 80.078125 190.085938 C 80.015625 189.851562 79.960938 189.613281 79.902344 189.378906 L 79.820312 189.023438 C 79.789062 188.902344 79.773438 188.785156 79.75 188.664062 L 79.613281 187.945312 L 79.511719 187.222656 C 79.011719 183.363281 79.597656 179.390625 81.167969 175.867188 C 82.730469 172.34375 85.261719 169.277344 88.402344 167.113281 L 88.992188 166.714844 L 89.605469 166.34375 L 89.910156 166.160156 L 90.222656 165.992188 L 90.851562 165.65625 L 91.496094 165.347656 C 91.601562 165.300781 91.710938 165.246094 91.816406 165.199219 L 92.148438 165.0625 L 92.804688 164.792969 L 93.476562 164.554688 L 93.808594 164.4375 L 94.152344 164.335938 L 94.832031 164.136719 L 95.519531 163.96875 C 95.636719 163.941406 95.75 163.910156 95.867188 163.886719 L 96.214844 163.820312 C 97.140625 163.625 98.082031 163.527344 99.023438 163.464844 C 102.792969 163.246094 106.59375 164.128906 109.886719 165.914062 C 113.179688 167.699219 115.976562 170.390625 117.832031 173.632812 C 117.953125 173.828125 118.058594 174.039062 118.167969 174.242188 C 118.277344 174.449219 118.394531 174.652344 118.492188 174.863281 C 118.6875 175.289062 118.894531 175.703125 119.058594 176.140625 C 119.238281 176.570312 119.40625 177.003906 119.550781 177.445312 C 119.699219 177.886719 119.832031 178.332031 119.945312 178.785156 C 120.414062 180.585938 120.632812 182.445312 120.597656 184.296875 C 120.578125 182.445312 120.300781 180.601562 119.785156 178.828125 C 119.65625 178.386719 119.511719 177.949219 119.355469 177.515625 C 119.199219 177.082031 119.019531 176.660156 118.832031 176.238281 C 118.652344 175.8125 118.4375 175.40625 118.230469 174.996094 C 118.128906 174.792969 118.007812 174.597656 117.898438 174.394531 C 117.78125 174.199219 117.671875 173.996094 117.546875 173.804688 C 115.628906 170.671875 112.816406 168.136719 109.578125 166.507812 C 106.34375 164.878906 102.671875 164.152344 99.09375 164.46875 C 98.199219 164.554688 97.308594 164.675781 96.4375 164.886719 L 96.109375 164.957031 C 96 164.984375 95.894531 165.015625 95.785156 165.046875 L 95.136719 165.222656 L 94.5 165.433594 L 94.179688 165.539062 L 93.242188 165.902344 L 92.628906 166.175781 L 92.324219 166.3125 C 92.222656 166.363281 92.125 166.414062 92.023438 166.464844 L 91.425781 166.769531 L 90.847656 167.105469 L 90.554688 167.269531 L 90.273438 167.453125 L 89.714844 167.816406 L 89.171875 168.207031 C 86.296875 170.320312 84.039062 173.242188 82.695312 176.527344 C 81.351562 179.816406 80.929688 183.460938 81.488281 186.9375 L 81.601562 187.585938 L 81.742188 188.230469 C 81.765625 188.339844 81.785156 188.445312 81.816406 188.554688 L 81.902344 188.871094 C 81.960938 189.082031 82.011719 189.296875 82.078125 189.503906 C 82.21875 189.921875 82.339844 190.34375 82.507812 190.75 C 82.589844 190.953125 82.660156 191.160156 82.746094 191.363281 L 83.015625 191.964844 C 83.734375 193.5625 84.691406 195.042969 85.8125 196.371094 C 86.570312 197.28125 87.421875 198.101562 88.339844 198.839844 C 88.773438 199.1875 89.222656 199.519531 89.679688 199.832031 C 89.855469 199.960938 90.042969 200.066406 90.226562 200.183594 C 90.253906 200.199219 90.285156 200.21875 90.316406 200.238281 C 90.46875 200.335938 90.621094 200.433594 90.777344 200.519531 C 91.160156 200.722656 91.53125 200.945312 91.921875 201.125 C 92.117188 201.21875 92.3125 201.316406 92.507812 201.402344 L 92.566406 201.429688 C 93.273438 201.546875 93.976562 201.65625 94.683594 201.75 C 95.207031 201.820312 95.726562 201.882812 96.25 201.9375 C 96.769531 201.996094 97.292969 202.042969 97.816406 202.089844 C 98.859375 202.175781 99.90625 202.238281 100.953125 202.273438 C 102 202.308594 103.046875 202.3125 104.09375 202.28125 C 105.140625 202.25 106.1875 202.183594 107.222656 202.054688 C 107.742188 201.992188 108.257812 201.914062 108.773438 201.8125 C 109.058594 201.753906 109.339844 201.691406 109.621094 201.621094 C 109.65625 201.613281 109.644531 201.5625 109.613281 201.566406 C 109.328125 201.617188 109.039062 201.660156 108.753906 201.691406 C 108.238281 201.753906 107.722656 201.792969 107.203125 201.816406 C 106.167969 201.863281 105.132812 201.847656 104.097656 201.800781 C 103.0625 201.75 102.03125 201.664062 101.003906 201.550781 C 99.976562 201.4375 98.953125 201.296875 97.929688 201.132812 C 97.421875 201.050781 96.914062 200.960938 96.40625 200.867188 C 95.898438 200.769531 95.390625 200.671875 94.886719 200.5625 C 93.878906 200.347656 92.875 200.109375 91.886719 199.839844 C 91.492188 199.734375 91.097656 199.621094 90.710938 199.503906 C 90.644531 199.484375 90.585938 199.453125 90.539062 199.410156 C 90.328125 199.226562 90.324219 198.863281 90.582031 198.679688 C 90.597656 198.667969 90.609375 198.660156 90.625 198.648438 C 90.640625 198.640625 90.65625 198.628906 90.671875 198.617188 C 92.136719 197.671875 93.535156 196.925781 94.867188 196.34375 C 94.914062 196.324219 94.960938 196.300781 95.011719 196.28125 C 100.671875 193.859375 105.191406 194.445312 109.046875 195.5625 C 109.152344 195.59375 109.253906 195.621094 109.359375 195.65625 C 109.609375 195.730469 109.851562 195.804688 110.097656 195.882812 C 114.132812 197.171875 117.441406 198.820312 120.621094 197.695312 C 120.828125 197.621094 121.011719 197.847656 120.902344 198.035156" stroke-linecap="round"/>
</g>
</svg>