<svg xmlns="http://www.w3.org/2000/svg"
	 xmlns:xlink="http://www.w3.org/1999/xlink"
	 version="1.1"
	 xml:space="preserve"
	 viewBox="-1.28 -0.53 912.18 249.33">
	<desc>Created with Fabric.js 3.5.0</desc>
	<defs>
	</defs>
	<g transform="matrix(1 0 0 1 590.5159 124.3741)"
	   style=""
	   id="970237">

		<path xml:space="preserve"
			  font-family="Rubik"
			  font-size="139"
			  font-style="normal"
			  font-weight="bold"
			  style="stroke: none; stroke-width: 1; stroke-dasharray: none; stroke-linecap: butt; stroke-dashoffset: 0; stroke-linejoin: miter; stroke-miterlimit: 4; is-custom-font: none; font-file-url: none; fill: rgb(239, 239, 239); fill-rule: nonzero; opacity: 1; white-space: pre;"
			  d="M-292.73 43.67L-309.41 43.67Q-310.93 43.67-311.91 42.62Q-312.88 41.58-312.88 40.19L-312.88 40.19L-312.88-50.16Q-312.88-51.69-311.91-52.66Q-310.93-53.63-309.41-53.63L-309.41-53.63L-294.67-53.63Q-292.31-53.63-291.27-52.59Q-290.22-51.55-289.95-50.99L-289.95-50.99L-256.03 2.38L-256.03-50.16Q-256.03-51.69-255.06-52.66Q-254.08-53.63-252.55-53.63L-252.55-53.63L-235.87-53.63Q-234.35-53.63-233.37-52.66Q-232.40-51.69-232.40-50.16L-232.40-50.16L-232.40 40.05Q-232.40 41.58-233.37 42.62Q-234.35 43.67-235.87 43.67L-235.87 43.67L-250.75 43.67Q-252.97 43.67-254.01 42.55Q-255.06 41.44-255.33 41.02L-255.33 41.02L-289.25-10.41L-289.25 40.19Q-289.25 41.58-290.22 42.62Q-291.20 43.67-292.73 43.67L-292.73 43.67Z" />
		<path xml:space="preserve"
			  font-family="Rubik"
			  font-size="139"
			  font-style="normal"
			  font-weight="bold"
			  style="stroke: none; stroke-width: 1; stroke-dasharray: none; stroke-linecap: butt; stroke-dashoffset: 0; stroke-linejoin: miter; stroke-miterlimit: 4; is-custom-font: none; font-file-url: none; fill: rgb(239, 239, 239); fill-rule: nonzero; opacity: 1; white-space: pre;"
			  d="M-182.64 45.06L-182.64 45.06Q-190.56 45.06-196.75 41.44Q-202.93 37.83-206.41 30.81Q-209.88 23.79-209.88 13.64L-209.88 13.64L-209.88-25.14Q-209.88-26.67-208.91-27.64Q-207.94-28.61-206.41-28.61L-206.41-28.61L-189.03-28.61Q-187.50-28.61-186.46-27.64Q-185.42-26.67-185.42-25.14L-185.42-25.14L-185.42 12.81Q-185.42 26.43-173.32 26.43L-173.32 26.43Q-167.63 26.43-164.22 22.88Q-160.81 19.34-160.81 12.81L-160.81 12.81L-160.81-25.14Q-160.81-26.67-159.84-27.64Q-158.87-28.61-157.34-28.61L-157.34-28.61L-139.96-28.61Q-138.44-28.61-137.46-27.64Q-136.49-26.67-136.49-25.14L-136.49-25.14L-136.49 40.19Q-136.49 41.58-137.46 42.62Q-138.44 43.67-139.96 43.67L-139.96 43.67L-156.09 43.67Q-157.48 43.67-158.52 42.62Q-159.56 41.58-159.56 40.19L-159.56 40.19L-159.56 34.91Q-163.18 39.91-168.95 42.48Q-174.71 45.06-182.64 45.06Z" />
		<path xml:space="preserve"
			  font-family="Rubik"
			  font-size="139"
			  font-style="normal"
			  font-weight="bold"
			  style="stroke: none; stroke-width: 1; stroke-dasharray: none; stroke-linecap: butt; stroke-dashoffset: 0; stroke-linejoin: miter; stroke-miterlimit: 4; is-custom-font: none; font-file-url: none; fill: rgb(239, 239, 239); fill-rule: nonzero; opacity: 1; white-space: pre;"
			  d="M-64.90 43.67L-77.83 43.67Q-86.73 43.67-93.19 40.82Q-99.65 37.97-103.13 31.92Q-106.60 25.87-106.60 16.28L-106.60 16.28L-106.60-10.41L-117.45-10.41Q-118.98-10.41-120.02-11.38Q-121.06-12.35-121.06-13.88L-121.06-13.88L-121.06-25.14Q-121.06-26.67-120.02-27.64Q-118.98-28.61-117.45-28.61L-117.45-28.61L-106.60-28.61L-106.60-51.55Q-106.60-53.08-105.56-54.05Q-104.52-55.02-103.13-55.02L-103.13-55.02L-87.01-55.02Q-85.48-55.02-84.50-54.05Q-83.53-53.08-83.53-51.55L-83.53-51.55L-83.53-28.61L-66.16-28.61Q-64.63-28.61-63.58-27.64Q-62.54-26.67-62.54-25.14L-62.54-25.14L-62.54-13.88Q-62.54-12.35-63.58-11.38Q-64.63-10.41-66.16-10.41L-66.16-10.41L-83.53-10.41L-83.53 14.34Q-83.53 19.06-81.72 21.84Q-79.92 24.62-75.61 24.62L-75.61 24.62L-64.90 24.62Q-63.38 24.62-62.40 25.60Q-61.43 26.57-61.43 28.10L-61.43 28.10L-61.43 40.19Q-61.43 41.58-62.40 42.62Q-63.38 43.67-64.90 43.67L-64.90 43.67Z" />
		<path xml:space="preserve"
			  font-family="Rubik"
			  font-size="139"
			  font-style="normal"
			  font-weight="bold"
			  style="stroke: none; stroke-width: 1; stroke-dasharray: none; stroke-linecap: butt; stroke-dashoffset: 0; stroke-linejoin: miter; stroke-miterlimit: 4; is-custom-font: none; font-file-url: none; fill: rgb(239, 239, 239); fill-rule: nonzero; opacity: 1; white-space: pre;"
			  d="M-23.90 43.67L-41.14 43.67Q-42.66 43.67-43.64 42.62Q-44.61 41.58-44.61 40.19L-44.61 40.19L-44.61-25.14Q-44.61-26.53-43.64-27.57Q-42.66-28.61-41.14-28.61L-41.14-28.61L-25.15-28.61Q-23.62-28.61-22.58-27.57Q-21.54-26.53-21.54-25.14L-21.54-25.14L-21.54-19.58Q-17.92-23.89-12.71-26.25Q-7.50-28.61-0.96-28.61L-0.96-28.61L5.15-28.61Q6.68-28.61 7.65-27.64Q8.63-26.67 8.63-25.14L8.63-25.14L8.63-10.82Q8.63-9.43 7.65-8.39Q6.68-7.35 5.15-7.35L5.15-7.35L-8.33-7.35Q-14.03-7.35-17.16-4.22Q-20.29-1.09-20.29 4.61L-20.29 4.61L-20.29 40.19Q-20.29 41.58-21.33 42.62Q-22.37 43.67-23.90 43.67L-23.90 43.67Z" />
		<path xml:space="preserve"
			  font-family="Rubik"
			  font-size="139"
			  font-style="normal"
			  font-weight="bold"
			  style="stroke: none; stroke-width: 1; stroke-dasharray: none; stroke-linecap: butt; stroke-dashoffset: 0; stroke-linejoin: miter; stroke-miterlimit: 4; is-custom-font: none; font-file-url: none; fill: rgb(239, 239, 239); fill-rule: nonzero; opacity: 1; white-space: pre;"
			  d="M43.65 43.67L27.25 43.67Q25.72 43.67 24.75 42.62Q23.78 41.58 23.78 40.19L23.78 40.19L23.78-25.14Q23.78-26.67 24.75-27.64Q25.72-28.61 27.25-28.61L27.25-28.61L43.65-28.61Q45.18-28.61 46.16-27.64Q47.13-26.67 47.13-25.14L47.13-25.14L47.13 40.19Q47.13 41.58 46.16 42.62Q45.18 43.67 43.65 43.67L43.65 43.67ZM43.79-39.04L27.11-39.04Q25.58-39.04 24.61-40.01Q23.64-40.99 23.64-42.51L23.64-42.51L23.64-55.02Q23.64-56.41 24.61-57.46Q25.58-58.50 27.11-58.50L27.11-58.50L43.79-58.50Q45.18-58.50 46.23-57.46Q47.27-56.41 47.27-55.02L47.27-55.02L47.27-42.51Q47.27-40.99 46.23-40.01Q45.18-39.04 43.79-39.04L43.79-39.04Z" />
		<path xml:space="preserve"
			  font-family="Rubik"
			  font-size="139"
			  font-style="normal"
			  font-weight="bold"
			  style="stroke: none; stroke-width: 1; stroke-dasharray: none; stroke-linecap: butt; stroke-dashoffset: 0; stroke-linejoin: miter; stroke-miterlimit: 4; is-custom-font: none; font-file-url: none; fill: rgb(239, 239, 239); fill-rule: nonzero; opacity: 1; white-space: pre;"
			  d="M112.88 45.06L112.88 45.06Q105.23 45.06 99.95 42.41Q94.67 39.77 91.33 35.74L91.33 35.74L91.33 40.19Q91.33 41.58 90.29 42.62Q89.25 43.67 87.86 43.67L87.86 43.67L72.15 43.67Q70.62 43.67 69.65 42.62Q68.67 41.58 68.67 40.19L68.67 40.19L68.67-51.55Q68.67-53.08 69.65-54.05Q70.62-55.02 72.15-55.02L72.15-55.02L89.11-55.02Q90.64-55.02 91.61-54.05Q92.58-53.08 92.58-51.55L92.58-51.55L92.58-21.80Q96.06-25.42 101.06-27.71Q106.07-30.00 112.88-30.00L112.88-30.00Q119.83-30.00 125.18-27.71Q130.53-25.42 134.28-21.18Q138.04-16.94 140.12-10.89Q142.21-4.85 142.48 2.52L142.48 2.52Q142.62 5.30 142.62 7.46Q142.62 9.61 142.48 12.39L142.48 12.39Q142.21 20.17 140.12 26.22Q138.04 32.27 134.21 36.51Q130.39 40.75 125.11 42.90Q119.83 45.06 112.88 45.06ZM105.37 26.43L105.37 26.43Q110.10 26.43 112.74 24.48Q115.38 22.54 116.56 19.20Q117.74 15.87 118.02 11.83L118.02 11.83Q118.30 7.53 118.02 3.22L118.02 3.22Q117.74-0.81 116.56-4.15Q115.38-7.49 112.74-9.43Q110.10-11.38 105.37-11.38L105.37-11.38Q101.06-11.38 98.28-9.50Q95.50-7.63 94.11-4.64Q92.72-1.65 92.58 1.83L92.58 1.83Q92.44 4.47 92.44 6.97Q92.44 9.47 92.58 12.25L92.58 12.25Q92.86 16.00 94.11 19.20Q95.36 22.40 98.14 24.41Q100.92 26.43 105.37 26.43Z" />
		<path xml:space="preserve"
			  font-family="Rubik"
			  font-size="139"
			  font-style="normal"
			  font-weight="bold"
			  style="stroke: none; stroke-width: 1; stroke-dasharray: none; stroke-linecap: butt; stroke-dashoffset: 0; stroke-linejoin: miter; stroke-miterlimit: 4; is-custom-font: none; font-file-url: none; fill: rgb(239, 239, 239); fill-rule: nonzero; opacity: 1; white-space: pre;"
			  d="M195.86 45.06L195.86 45.06Q184.18 45.06 176.19 41.30Q168.20 37.55 163.96 30.53Q159.72 23.51 159.16 13.78L159.16 13.78Q159.02 11.00 159.02 7.46Q159.02 3.91 159.16 1.27L159.16 1.27Q159.72-8.60 164.17-15.55Q168.62-22.50 176.61-26.25Q184.60-30.00 195.86-30.00L195.86-30.00Q207.26-30.00 215.25-26.25Q223.24-22.50 227.69-15.55Q232.14-8.60 232.69 1.27L232.69 1.27Q232.83 3.91 232.83 7.46Q232.83 11.00 232.69 13.78L232.69 13.78Q232.14 23.51 227.90 30.53Q223.66 37.55 215.67 41.30Q207.67 45.06 195.86 45.06ZM195.86 28.10L195.86 28.10Q202.11 28.10 204.96 24.34Q207.81 20.59 208.23 13.09L208.23 13.09Q208.37 11.00 208.37 7.53Q208.37 4.05 208.23 1.97L208.23 1.97Q207.81-5.40 204.96-9.22Q202.11-13.05 195.86-13.05L195.86-13.05Q189.88-13.05 186.89-9.22Q183.91-5.40 183.63 1.97L183.63 1.97Q183.49 4.05 183.49 7.53Q183.49 11.00 183.63 13.09L183.63 13.09Q183.91 20.59 186.89 24.34Q189.88 28.10 195.86 28.10Z" />
		<path xml:space="preserve"
			  font-family="Rubik"
			  font-size="139"
			  font-style="normal"
			  font-weight="bold"
			  style="stroke: none; stroke-width: 1; stroke-dasharray: none; stroke-linecap: butt; stroke-dashoffset: 0; stroke-linejoin: miter; stroke-miterlimit: 4; is-custom-font: none; font-file-url: none; fill: rgb(239, 239, 239); fill-rule: nonzero; opacity: 1; white-space: pre;"
			  d="M263.54 43.67L246.16 43.67Q244.91 43.67 244.01 42.76Q243.10 41.86 243.10 40.47L243.10 40.47Q243.10 40.19 243.24 39.56Q243.38 38.94 243.80 38.38L243.80 38.38L267.01 6.55L245.88-23.33Q245.47-23.89 245.26-24.44Q245.05-25.00 245.05-25.56L245.05-25.56Q245.05-26.81 246.02-27.71Q246.99-28.61 248.25-28.61L248.25-28.61L265.20-28.61Q267.01-28.61 267.91-27.78Q268.82-26.95 269.23-26.25L269.23-26.25L282.16-8.46L294.95-26.11Q295.51-26.81 296.41-27.71Q297.31-28.61 299.12-28.61L299.12-28.61L315.38-28.61Q316.63-28.61 317.54-27.71Q318.44-26.81 318.44-25.56L318.44-25.56Q318.44-25.00 318.30-24.44Q318.16-23.89 317.75-23.33L317.75-23.33L296.06 6.55L319.69 38.38Q320.11 38.94 320.25 39.50Q320.39 40.05 320.39 40.47L320.39 40.47Q320.39 41.86 319.48 42.76Q318.58 43.67 317.33 43.67L317.33 43.67L299.54 43.67Q297.87 43.67 297.03 42.90Q296.20 42.14 295.64 41.44L295.64 41.44L281.61 22.40L267.43 41.44Q266.87 42.00 266.04 42.83Q265.20 43.67 263.54 43.67L263.54 43.67Z" />
	</g>
	<g transform="matrix(5.449 0 0 5.449 113.8316 124.3742)"
	   id="745634"
	   clip-path="url(#CLIPPATH_5)">
		<clipPath id="CLIPPATH_5">
			<path transform="matrix(1 0 0 1 -0.1306 -0.0444) translate(-100.0059, -186.1211)"
				  id="5510"
				  d="M 79.011719 163.242188 L 121 163.242188 L 121 209 L 79.011719 209 Z M 79.011719 163.242188"
				  stroke-linecap="round" />
		</clipPath>
		<path style="stroke: none; stroke-width: 1; stroke-dasharray: none; stroke-linecap: butt; stroke-dashoffset: 0; stroke-linejoin: miter; stroke-miterlimit: 4; is-custom-font: none; font-file-url: none; fill: rgb(59,183,126); fill-rule: nonzero; opacity: 1;"
			  vector-effect="non-scaling-stroke"
			  transform=" translate(-100.1364, -186.1655)"
			  d="M 110.003906 172.605469 L 109.625 172.316406 L 109.230469 172.046875 C 109.164062 172 109.097656 171.953125 109.03125 171.914062 L 108.828125 171.789062 C 108.691406 171.707031 108.554688 171.621094 108.417969 171.539062 C 108.136719 171.390625 107.859375 171.226562 107.570312 171.09375 C 107.425781 171.027344 107.285156 170.953125 107.136719 170.890625 L 106.695312 170.707031 C 105.515625 170.214844 104.257812 169.90625 102.988281 169.757812 C 101.710938 169.605469 100.417969 169.65625 99.152344 169.859375 C 98.992188 169.878906 98.835938 169.914062 98.675781 169.945312 C 98.519531 169.980469 98.363281 170.007812 98.207031 170.046875 C 97.894531 170.128906 97.582031 170.199219 97.277344 170.300781 C 97.125 170.351562 96.96875 170.398438 96.816406 170.449219 C 96.710938 170.488281 96.597656 170.507812 96.484375 170.503906 C 89.328125 170.328125 83.335938 177.902344 85.804688 186.800781 C 85.84375 186.9375 86.03125 186.957031 86.09375 186.828125 C 87.128906 184.660156 89.746094 183.933594 92.449219 182.445312 C 95.3125 180.863281 98.277344 178.425781 99.550781 172.5 C 99.558594 172.476562 99.5625 172.453125 99.566406 172.429688 C 99.605469 172.179688 99.347656 171.984375 99.125 172.105469 C 98.886719 172.230469 98.65625 172.363281 98.421875 172.496094 C 97.839844 172.828125 97.261719 173.183594 96.695312 173.554688 C 96.414062 173.738281 96.132812 173.925781 95.851562 174.117188 C 95.574219 174.308594 95.296875 174.503906 95.023438 174.703125 C 94.472656 175.097656 93.933594 175.511719 93.402344 175.933594 C 92.871094 176.359375 92.355469 176.796875 91.851562 177.253906 C 91.351562 177.710938 90.863281 178.1875 90.40625 178.6875 C 90.175781 178.941406 89.953125 179.199219 89.742188 179.464844 C 89.625 179.613281 89.511719 179.765625 89.402344 179.921875 C 89.390625 179.941406 89.363281 179.921875 89.375 179.902344 C 89.472656 179.738281 89.574219 179.578125 89.679688 179.417969 C 89.871094 179.132812 90.074219 178.855469 90.285156 178.585938 C 90.707031 178.046875 91.160156 177.53125 91.632812 177.03125 C 92.101562 176.53125 92.589844 176.046875 93.09375 175.578125 C 93.59375 175.105469 94.105469 174.648438 94.632812 174.207031 C 94.894531 173.984375 95.160156 173.765625 95.429688 173.546875 C 95.695312 173.332031 95.964844 173.121094 96.242188 172.910156 C 96.613281 172.625 96.988281 172.347656 97.371094 172.074219 L 97.410156 172.058594 C 97.542969 172.007812 97.675781 171.964844 97.808594 171.917969 C 98.074219 171.816406 98.351562 171.75 98.621094 171.667969 C 98.757812 171.628906 98.898438 171.601562 99.035156 171.566406 C 99.171875 171.535156 99.308594 171.496094 99.449219 171.476562 C 100.5625 171.265625 101.707031 171.183594 102.847656 171.285156 C 103.980469 171.382812 105.109375 171.625 106.1875 172.03125 L 106.589844 172.1875 C 106.722656 172.238281 106.851562 172.300781 106.984375 172.359375 C 107.25 172.46875 107.5 172.609375 107.757812 172.738281 C 107.886719 172.804688 108.007812 172.878906 108.136719 172.949219 L 108.324219 173.058594 C 108.386719 173.09375 108.445312 173.132812 108.503906 173.171875 L 108.871094 173.40625 L 109.222656 173.65625 C 111.089844 175.007812 112.585938 176.894531 113.484375 179.042969 C 114.386719 181.191406 114.691406 183.59375 114.339844 185.90625 L 114.265625 186.339844 L 114.175781 186.769531 L 114.128906 186.984375 L 114.074219 187.195312 L 113.957031 187.621094 L 113.824219 188.039062 C 113.800781 188.109375 113.777344 188.179688 113.753906 188.25 L 113.675781 188.453125 L 113.519531 188.867188 L 113.339844 189.269531 L 113.25 189.46875 L 113.152344 189.667969 L 112.953125 190.0625 L 112.738281 190.445312 C 112.699219 190.507812 112.664062 190.574219 112.625 190.632812 L 112.507812 190.820312 C 112.203125 191.324219 111.84375 191.792969 111.46875 192.246094 C 110.671875 193.203125 109.726562 194.035156 108.675781 194.714844 C 108.90625 194.785156 109.132812 194.855469 109.359375 194.925781 C 110.320312 194.296875 111.199219 193.542969 111.96875 192.679688 C 112.375 192.214844 112.765625 191.730469 113.105469 191.210938 L 113.234375 191.019531 C 113.28125 190.953125 113.316406 190.886719 113.359375 190.820312 L 113.601562 190.421875 L 113.824219 190.015625 L 113.933594 189.808594 L 114.035156 189.597656 L 114.234375 189.179688 L 114.414062 188.746094 L 114.503906 188.53125 C 114.53125 188.460938 114.558594 188.386719 114.585938 188.3125 L 114.742188 187.871094 L 114.878906 187.425781 L 114.945312 187.199219 L 115 186.972656 L 115.113281 186.515625 L 115.203125 186.058594 C 115.652344 183.597656 115.410156 181 114.5 178.640625 C 113.59375 176.277344 112.027344 174.160156 110.003906 172.605469 Z M 120.902344 198.035156 C 113.984375 210.292969 99.359375 211.988281 91.828125 204.078125 C 91.710938 203.953125 91.570312 203.851562 91.414062 203.777344 C 91.191406 203.671875 90.976562 203.554688 90.757812 203.441406 C 90.679688 203.402344 90.605469 203.363281 90.527344 203.324219 C 90.171875 203.132812 89.828125 202.917969 89.480469 202.714844 C 89.269531 202.589844 89.070312 202.449219 88.863281 202.316406 C 88.660156 202.175781 88.453125 202.050781 88.257812 201.898438 C 88.171875 201.835938 88.089844 201.773438 88.003906 201.710938 C 86.519531 200.601562 85.160156 199.320312 84.015625 197.867188 C 82.800781 196.335938 81.78125 194.644531 81.035156 192.84375 L 80.757812 192.167969 C 80.671875 191.941406 80.59375 191.710938 80.511719 191.480469 C 80.34375 191.023438 80.21875 190.550781 80.078125 190.085938 C 80.015625 189.851562 79.960938 189.613281 79.902344 189.378906 L 79.820312 189.023438 C 79.789062 188.902344 79.773438 188.785156 79.75 188.664062 L 79.613281 187.945312 L 79.511719 187.222656 C 79.011719 183.363281 79.597656 179.390625 81.167969 175.867188 C 82.730469 172.34375 85.261719 169.277344 88.402344 167.113281 L 88.992188 166.714844 L 89.605469 166.34375 L 89.910156 166.160156 L 90.222656 165.992188 L 90.851562 165.65625 L 91.496094 165.347656 C 91.601562 165.300781 91.710938 165.246094 91.816406 165.199219 L 92.148438 165.0625 L 92.804688 164.792969 L 93.476562 164.554688 L 93.808594 164.4375 L 94.152344 164.335938 L 94.832031 164.136719 L 95.519531 163.96875 C 95.636719 163.941406 95.75 163.910156 95.867188 163.886719 L 96.214844 163.820312 C 97.140625 163.625 98.082031 163.527344 99.023438 163.464844 C 102.792969 163.246094 106.59375 164.128906 109.886719 165.914062 C 113.179688 167.699219 115.976562 170.390625 117.832031 173.632812 C 117.953125 173.828125 118.058594 174.039062 118.167969 174.242188 C 118.277344 174.449219 118.394531 174.652344 118.492188 174.863281 C 118.6875 175.289062 118.894531 175.703125 119.058594 176.140625 C 119.238281 176.570312 119.40625 177.003906 119.550781 177.445312 C 119.699219 177.886719 119.832031 178.332031 119.945312 178.785156 C 120.414062 180.585938 120.632812 182.445312 120.597656 184.296875 C 120.578125 182.445312 120.300781 180.601562 119.785156 178.828125 C 119.65625 178.386719 119.511719 177.949219 119.355469 177.515625 C 119.199219 177.082031 119.019531 176.660156 118.832031 176.238281 C 118.652344 175.8125 118.4375 175.40625 118.230469 174.996094 C 118.128906 174.792969 118.007812 174.597656 117.898438 174.394531 C 117.78125 174.199219 117.671875 173.996094 117.546875 173.804688 C 115.628906 170.671875 112.816406 168.136719 109.578125 166.507812 C 106.34375 164.878906 102.671875 164.152344 99.09375 164.46875 C 98.199219 164.554688 97.308594 164.675781 96.4375 164.886719 L 96.109375 164.957031 C 96 164.984375 95.894531 165.015625 95.785156 165.046875 L 95.136719 165.222656 L 94.5 165.433594 L 94.179688 165.539062 L 93.242188 165.902344 L 92.628906 166.175781 L 92.324219 166.3125 C 92.222656 166.363281 92.125 166.414062 92.023438 166.464844 L 91.425781 166.769531 L 90.847656 167.105469 L 90.554688 167.269531 L 90.273438 167.453125 L 89.714844 167.816406 L 89.171875 168.207031 C 86.296875 170.320312 84.039062 173.242188 82.695312 176.527344 C 81.351562 179.816406 80.929688 183.460938 81.488281 186.9375 L 81.601562 187.585938 L 81.742188 188.230469 C 81.765625 188.339844 81.785156 188.445312 81.816406 188.554688 L 81.902344 188.871094 C 81.960938 189.082031 82.011719 189.296875 82.078125 189.503906 C 82.21875 189.921875 82.339844 190.34375 82.507812 190.75 C 82.589844 190.953125 82.660156 191.160156 82.746094 191.363281 L 83.015625 191.964844 C 83.734375 193.5625 84.691406 195.042969 85.8125 196.371094 C 86.570312 197.28125 87.421875 198.101562 88.339844 198.839844 C 88.773438 199.1875 89.222656 199.519531 89.679688 199.832031 C 89.855469 199.960938 90.042969 200.066406 90.226562 200.183594 C 90.253906 200.199219 90.285156 200.21875 90.316406 200.238281 C 90.46875 200.335938 90.621094 200.433594 90.777344 200.519531 C 91.160156 200.722656 91.53125 200.945312 91.921875 201.125 C 92.117188 201.21875 92.3125 201.316406 92.507812 201.402344 L 92.566406 201.429688 C 93.273438 201.546875 93.976562 201.65625 94.683594 201.75 C 95.207031 201.820312 95.726562 201.882812 96.25 201.9375 C 96.769531 201.996094 97.292969 202.042969 97.816406 202.089844 C 98.859375 202.175781 99.90625 202.238281 100.953125 202.273438 C 102 202.308594 103.046875 202.3125 104.09375 202.28125 C 105.140625 202.25 106.1875 202.183594 107.222656 202.054688 C 107.742188 201.992188 108.257812 201.914062 108.773438 201.8125 C 109.058594 201.753906 109.339844 201.691406 109.621094 201.621094 C 109.65625 201.613281 109.644531 201.5625 109.613281 201.566406 C 109.328125 201.617188 109.039062 201.660156 108.753906 201.691406 C 108.238281 201.753906 107.722656 201.792969 107.203125 201.816406 C 106.167969 201.863281 105.132812 201.847656 104.097656 201.800781 C 103.0625 201.75 102.03125 201.664062 101.003906 201.550781 C 99.976562 201.4375 98.953125 201.296875 97.929688 201.132812 C 97.421875 201.050781 96.914062 200.960938 96.40625 200.867188 C 95.898438 200.769531 95.390625 200.671875 94.886719 200.5625 C 93.878906 200.347656 92.875 200.109375 91.886719 199.839844 C 91.492188 199.734375 91.097656 199.621094 90.710938 199.503906 C 90.644531 199.484375 90.585938 199.453125 90.539062 199.410156 C 90.328125 199.226562 90.324219 198.863281 90.582031 198.679688 C 90.597656 198.667969 90.609375 198.660156 90.625 198.648438 C 90.640625 198.640625 90.65625 198.628906 90.671875 198.617188 C 92.136719 197.671875 93.535156 196.925781 94.867188 196.34375 C 94.914062 196.324219 94.960938 196.300781 95.011719 196.28125 C 100.671875 193.859375 105.191406 194.445312 109.046875 195.5625 C 109.152344 195.59375 109.253906 195.621094 109.359375 195.65625 C 109.609375 195.730469 109.851562 195.804688 110.097656 195.882812 C 114.132812 197.171875 117.441406 198.820312 120.621094 197.695312 C 120.828125 197.621094 121.011719 197.847656 120.902344 198.035156"
			  stroke-linecap="round" />
	</g>
</svg>